<svg>
    <symbol id ="phone" viewBox="0 0 14 20" fill="none" xmlns="http://www.w3.org/2000/svg">
        <path fill-rule="evenodd" clip-rule="evenodd" d="M6.18001 1.89997H7.82C8.9138 1.89997 9.6259 1.90138 10.1693 1.94577C10.6916 1.98845 10.8976 2.06172 11.008 2.11796C11.3843 2.30971 11.6903 2.61567 11.882 2.99199C11.9383 3.10238 12.0115 3.30838 12.0542 3.83072C12.0986 4.37408 12.1 5.08617 12.1 6.17998V13.82C12.1 14.9138 12.0986 15.6259 12.0542 16.1693C12.0115 16.6916 11.9383 16.8976 11.882 17.008C11.6903 17.3843 11.3843 17.6903 11.008 17.882C10.8976 17.9383 10.6916 18.0115 10.1693 18.0542C9.6259 18.0986 8.9138 18.1 7.82 18.1H6.18001C5.08621 18.1 4.37411 18.0986 3.83075 18.0542C3.30841 18.0115 3.10242 17.9383 2.99203 17.882C2.6157 17.6903 2.30974 17.3843 2.11799 17.008C2.06175 16.8976 1.98848 16.6916 1.9458 16.1693C1.90141 15.6259 1.90001 14.9138 1.90001 13.82V6.17997C1.90001 5.08617 1.90141 4.37408 1.9458 3.83072C1.98848 3.30838 2.06175 3.10239 2.11799 2.99199C2.30974 2.61567 2.6157 2.30971 2.99203 2.11796C3.10242 2.06172 3.30841 1.98845 3.83075 1.94577C4.37411 1.90138 5.08621 1.89997 6.18001 1.89997ZM0.100006 6.17997C0.100006 4.05177 0.100006 2.98768 0.514181 2.17481C0.8785 1.4598 1.45983 0.878469 2.17484 0.514151C2.98771 0.0999754 4.05181 0.0999756 6.18001 0.0999756H7.82C9.9482 0.0999756 11.0123 0.0999754 11.8252 0.514151C12.5402 0.878469 13.1215 1.4598 13.4858 2.17481C13.9 2.98768 13.9 4.05178 13.9 6.17998V13.82C13.9 15.9482 13.9 17.0123 13.4858 17.8252C13.1215 18.5402 12.5402 19.1215 11.8252 19.4858C11.0123 19.9 9.9482 19.9 7.82 19.9H6.18001C4.05181 19.9 2.98771 19.9 2.17484 19.4858C1.45983 19.1215 0.8785 18.5402 0.514181 17.8252C0.100006 17.0123 0.100006 15.9482 0.100006 13.82V6.17997ZM6.25 14.2C5.75294 14.2 5.35 14.6029 5.35 15.1C5.35 15.597 5.75294 16 6.25 16H7.75C8.24706 16 8.65 15.597 8.65 15.1C8.65 14.6029 8.24706 14.2 7.75 14.2H6.25Z" fill="#2D66EE"/>
    </symbol>
    <symbol id ="email" viewBox="0 0 20 16" fill="none" xmlns="http://www.w3.org/2000/svg">
        <path fill-rule="evenodd" clip-rule="evenodd" d="M5.79998 0.0999759H5.76228H5.76225C4.95421 0.099966 4.29336 0.0999579 3.75629 0.143838C3.20038 0.189258 2.6983 0.286141 2.22941 0.525051C1.49558 0.898957 0.898957 1.49558 0.525051 2.22941C0.28614 2.6983 0.189258 3.20038 0.143838 3.75629C0.0999575 4.29337 0.0999658 4.95421 0.0999759 5.76226V5.76228V5.79998V10.2V10.2377V10.2377C0.0999658 11.0457 0.0999575 11.7066 0.143838 12.2437C0.189258 12.7996 0.28614 13.3017 0.525051 13.7705C0.898957 14.5044 1.49558 15.101 2.22941 15.4749C2.6983 15.7138 3.20038 15.8107 3.75629 15.8561C4.29337 15.9 4.95422 15.9 5.76227 15.9H5.79998H14.2H14.2377C15.0457 15.9 15.7066 15.9 16.2437 15.8561C16.7996 15.8107 17.3017 15.7138 17.7705 15.4749C18.5044 15.101 19.101 14.5044 19.4749 13.7705C19.7138 13.3017 19.8107 12.7996 19.8561 12.2437C19.9 11.7066 19.9 11.0457 19.9 10.2377V10.2V5.79998V5.76227C19.9 4.95422 19.9 4.29337 19.8561 3.75629C19.8107 3.20038 19.7138 2.6983 19.4749 2.22941C19.101 1.49558 18.5044 0.898957 17.7705 0.525051C17.3017 0.286141 16.7996 0.189258 16.2437 0.143838C15.7066 0.0999579 15.0457 0.099966 14.2377 0.0999759H14.2377H14.2H5.79998ZM3.38061 2.01214C3.51618 1.98079 3.68477 1.95568 3.90287 1.93786C4.35798 1.90068 4.94505 1.89998 5.79998 1.89998H14.2C15.0549 1.89998 15.642 1.90068 16.0971 1.93786C16.3152 1.95568 16.4838 1.98079 16.6193 2.01214L12.6103 5.52006C12.0325 6.02564 11.6369 6.371 11.3074 6.61735C10.987 6.85696 10.7832 6.96052 10.6069 7.01267C10.2107 7.12981 9.78921 7.12981 9.3931 7.01267C9.21676 6.96052 9.01295 6.85696 8.69253 6.61735C8.3631 6.371 7.96747 6.02565 7.38967 5.52006L3.38061 2.01214ZM2.05037 3.23996C2.00084 3.39565 1.96243 3.60221 1.93786 3.90287C1.90068 4.35798 1.89998 4.94505 1.89998 5.79998V10.2C1.89998 11.0549 1.90068 11.642 1.93786 12.0971C1.97419 12.5417 2.04079 12.7805 2.12886 12.9534C2.3302 13.3485 2.65146 13.6698 3.0466 13.8711C3.21944 13.9592 3.45827 14.0258 3.90287 14.0621C4.35798 14.0993 4.94505 14.1 5.79998 14.1H14.2C15.0549 14.1 15.642 14.0993 16.0971 14.0621C16.5417 14.0258 16.7805 13.9592 16.9534 13.8711C17.3485 13.6698 17.6698 13.3485 17.8711 12.9534C17.9592 12.7805 18.0258 12.5417 18.0621 12.0971C18.0993 11.642 18.1 11.0549 18.1 10.2V5.79998C18.1 4.94505 18.0993 4.35798 18.0621 3.90287C18.0375 3.60221 17.9991 3.39565 17.9496 3.23996L13.7956 6.8747L13.7694 6.89764C13.2242 7.37465 12.7768 7.76618 12.3854 8.05886C11.9787 8.36296 11.5796 8.60207 11.1173 8.73877C10.388 8.95444 9.61192 8.95444 8.88265 8.73877C8.4204 8.60207 8.02121 8.36296 7.61455 8.05886C7.22317 7.76619 6.77574 7.37468 6.23062 6.89768L6.20436 6.8747L2.05037 3.23996Z" fill="#2D66EE"/>
    </symbol>
    <symbol id="chevron" width="7" height="12" viewBox="0 0 7 12" fill="none" xmlns="http://www.w3.org/2000/svg">
        <path fill-rule="evenodd" clip-rule="evenodd" d="M0.263627 0.263605C-0.0878444 0.615078 -0.0878429 1.18493 0.26363 1.5364L4.72723 5.99998L0.263627 10.4636C-0.0878444 10.8151 -0.0878429 11.3849 0.26363 11.7364C0.615103 12.0879 1.18495 12.0879 1.53642 11.7364L6.63642 6.63637C6.98789 6.2849 6.98789 5.71505 6.63642 5.36358L1.53642 0.263602C1.18495 -0.0878686 0.615098 -0.0878673 0.263627 0.263605Z" fill="#2D66EE"/>
    </symbol>
    <symbol id="social-media-icon" viewBox="0 0 20 22" fill="none" xmlns="http://www.w3.org/2000/svg">
        <path d="M12.2977 0.434782C13.0301 0.60572 13.6748 0.977961 14.189 1.52673C14.7103 2.08303 15.0136 2.67244 15.34 3.82461L16.1309 6.769C16.2738 7.30246 15.9572 7.8508 15.4238 7.99374C14.8903 8.13668 14.342 7.8201 14.199 7.28663L13.4786 4.59795L13.366 4.19565C13.151 3.46707 12.9894 3.17153 12.7296 2.89425C12.4856 2.6339 12.1906 2.46353 11.8431 2.38243C11.4731 2.29606 11.1363 2.30392 10.3979 2.48204L9.99318 2.58564L4.86571 3.95954C4.01172 4.18837 3.61196 4.35416 3.35689 4.54274L3.29595 4.5904L3.16201 4.70853C2.90166 4.95248 2.73129 5.24757 2.65019 5.59502C2.55662 5.9959 2.57364 6.35767 2.79792 7.23347L5.5214 17.4021L5.63404 17.8043C5.84901 18.5329 6.01056 18.8285 6.27038 19.1058C6.51434 19.3661 6.80943 19.5365 7.15688 19.6176C7.55809 19.7112 7.90219 19.6939 8.76422 19.4774C9.29987 19.3429 9.84315 19.6681 9.97769 20.2037C10.1122 20.7393 9.78705 21.2826 9.2514 21.4172C8.10257 21.7057 7.44564 21.7387 6.70228 21.5652C5.96992 21.3943 5.32518 21.022 4.81097 20.4733C4.28969 19.917 3.9864 19.3276 3.65994 18.1754L0.921552 7.96259C0.566921 6.63909 0.51688 5.93586 0.702543 5.14042C0.854488 4.48944 1.16549 3.90768 1.63267 3.41205L1.81518 3.23026L1.99402 3.07252C2.48972 2.66088 3.07127 2.38817 4.08534 2.10011L4.34807 2.02769L9.47554 0.653791C10.799 0.29916 11.5023 0.249119 12.2977 0.434782ZM16.3684 10C18.3686 10 20 11.5915 20 13.5673C20 15.4763 19.2284 16.4183 16.2201 18.7009L14.8923 19.7084C14.3648 20.1087 13.6352 20.1087 13.1077 19.7084L11.7799 18.7009C8.77162 16.4183 7.99999 15.4763 7.99999 13.5673C7.99999 11.5915 9.63137 10 11.6316 10C12.4608 10 13.2275 10.2237 13.914 10.6597L14 10.717L14.086 10.6597C14.7039 10.2673 15.3867 10.0469 16.1215 10.0067L16.3684 10Z" fill="#2D66EE"/>
    </symbol>
    <symbol id="fitness-and-sport" viewBox="0 0 20 20" fill="none" xmlns="http://www.w3.org/2000/svg">
        <path fill-rule="evenodd" clip-rule="evenodd" d="M2.99962 2.99962C4.79018 1.20906 7.26641 0.0999756 9.99998 0.0999756C12.7335 0.0999756 15.2098 1.20906 17.0003 2.99962C18.7909 4.79018 19.9 7.26641 19.9 9.99998C19.9 12.7335 18.7909 15.2098 17.0003 17.0003C15.2098 18.7909 12.7335 19.9 9.99998 19.9C7.26641 19.9 4.79018 18.7909 2.99962 17.0003C1.20906 15.2098 0.0999756 12.7335 0.0999756 9.99998C0.0999756 7.26641 1.20906 4.79018 2.99962 2.99962ZM10.8997 18C10.8997 15.8665 10.149 13.9083 8.89732 12.3752L10.4997 10.7728L15.5894 15.8624C14.339 17.055 12.7095 17.8508 10.8996 18.0506L10.8997 18ZM9.09974 18C9.09974 16.3638 8.54627 14.8568 7.61634 13.6562L4.94389 16.3286C6.10947 17.2612 7.5373 17.8779 9.09957 18.0505L9.09974 18ZM1.99974 10.9C3.63595 10.9 5.14288 11.4534 6.34354 12.3834L3.67112 15.0558C2.73856 13.8902 2.12196 12.4624 1.94938 10.9001L1.99974 10.9ZM10.4997 8.22718L12.1022 6.62476C11.0289 5.31028 10.324 3.6833 10.1448 1.90124C10.0966 1.9004 10.0484 1.89998 9.99998 1.89998C8.34389 1.89998 6.80468 2.39632 5.5218 3.24925L10.4997 8.22718ZM15.0558 3.67112L13.3831 5.34378C12.6751 4.42956 12.1852 3.33776 11.9918 2.14653C13.1277 2.43361 14.1678 2.96068 15.0558 3.67112ZM17.8534 8.00791C16.6621 7.81452 15.5702 7.32469 14.6559 6.61657L16.3286 4.94389C17.0391 5.83186 17.5662 6.87204 17.8534 8.00791ZM11.7725 9.49998L13.375 7.89756C14.6895 8.97081 16.3166 9.67575 18.0987 9.85493C18.0996 9.90317 18.1 9.95152 18.1 9.99998C18.1 11.6561 17.6036 13.1953 16.7507 14.4781L11.7725 9.49998ZM7.62453 11.1024L9.22695 9.49998L4.13751 4.41054C2.94496 5.66089 2.1492 7.29031 1.94934 9.10012L1.99974 9.09998C4.13326 9.09998 6.09144 9.8507 7.62453 11.1024Z" fill="#2D66EE"/>
    </symbol>
    <symbol id="bank" viewBox="0 0 18 18" fill="none" xmlns="http://www.w3.org/2000/svg">
        <path fill-rule="evenodd" clip-rule="evenodd" d="M8.72815 1.83583C8.91107 1.78797 9.10323 1.78806 9.2861 1.83609C9.45205 1.87968 9.63216 1.99425 10.3822 2.55445L16.5552 7.16477C16.9534 7.46221 17.5174 7.38048 17.8148 6.98224C18.1122 6.58399 18.0305 6.02004 17.6323 5.7226L11.4593 1.11228L11.3445 1.0264C10.7737 0.598868 10.2942 0.239842 9.7434 0.0951516C9.26129 -0.0314862 8.75469 -0.0317205 8.27246 0.0944709C7.7215 0.238652 7.24174 0.597235 6.67045 1.02424L6.55559 1.11001L0.368343 5.7221C-0.0301763 6.01917 -0.112422 6.58305 0.184642 6.98157C0.481706 7.38009 1.04559 7.46234 1.44411 7.16527L7.63135 2.55318C8.38195 1.99367 8.56216 1.87927 8.72815 1.83583ZM9.89997 7.89059C9.89997 7.39353 9.49703 6.99059 8.99998 6.99059C8.50292 6.99059 8.09998 7.39353 8.09998 7.89059V16.1004H5.89998V7.89291C5.89998 7.39585 5.49703 6.99291 4.99998 6.99291C4.50292 6.99291 4.09998 7.39585 4.09998 7.89291V16.1004H0.902319C0.405263 16.1004 0.00231934 16.5033 0.00231934 17.0004C0.00231934 17.4974 0.405263 17.9004 0.902319 17.9004H17.0976C17.5947 17.9004 17.9976 17.4974 17.9976 17.0004C17.9976 16.5033 17.5947 16.1004 17.0976 16.1004H13.9V7.89291C13.9 7.39585 13.497 6.99291 13 6.99291C12.5029 6.99291 12.1 7.39585 12.1 7.89291V16.1004H9.89997V7.89059Z" fill="#2D66EE"/>
    </symbol>
    <symbol id="construction" viewBox="0 0 16 21" fill="none" xmlns="http://www.w3.org/2000/svg">
        <path fill-rule="evenodd" clip-rule="evenodd" d="M8.89997 0.999976C8.89997 0.502919 8.49703 0.0999756 7.99997 0.0999756C7.50291 0.0999756 7.09997 0.502919 7.09997 0.999976V1.17464C4.8052 1.55963 3.0012 3.39194 2.65869 5.70083L2.58935 5.68971C2.45071 5.66722 2.34503 5.64867 2.27522 5.63598C2.24032 5.62963 2.2144 5.62475 2.19782 5.62158L2.18 5.61814L2.17647 5.61745C1.68922 5.52025 1.2149 5.83621 1.11745 6.32347C1.01997 6.81087 1.33606 7.28502 1.82346 7.3825L1.82485 7.38277L1.82716 7.38323L1.8345 7.38468L1.85998 7.3896C1.88173 7.39375 1.91294 7.39962 1.95323 7.40694C2.03382 7.42159 2.15079 7.4421 2.30122 7.4665C2.56027 7.5085 2.91878 7.56208 3.3617 7.61713C3.35393 7.72706 3.34998 7.83805 3.34998 7.94996C3.34998 10.5189 5.43104 12.6 7.99998 12.6C10.5689 12.6 12.65 10.5189 12.65 7.94996C12.65 7.83805 12.646 7.72706 12.6383 7.61713C13.0812 7.56208 13.4397 7.5085 13.6987 7.4665C13.8491 7.4421 13.9661 7.42159 14.0467 7.40694C14.087 7.39962 14.1182 7.39375 14.14 7.3896L14.1654 7.38468L14.1728 7.38323L14.1751 7.38277L14.1762 7.38255C14.6636 7.28507 14.98 6.81087 14.8825 6.32347C14.785 5.83613 14.311 5.52006 13.8237 5.61741L13.8199 5.61814L13.8021 5.62158C13.7855 5.62475 13.7596 5.62963 13.7247 5.63598C13.6549 5.64867 13.5492 5.66722 13.4106 5.68971L13.3412 5.70083C12.9987 3.39194 11.1947 1.55963 8.89997 1.17464V0.999976ZM7.10007 3.01337C7.10723 3.50425 7.50738 3.89998 7.99997 3.89998C8.49255 3.89998 8.89271 3.50425 8.89987 3.01337C10.272 3.36648 11.3275 4.50815 11.5545 5.92647C10.5923 6.02085 9.37516 6.09998 7.99997 6.09998C6.62478 6.09998 5.40768 6.02085 4.4454 5.92647C4.67246 4.50815 5.72798 3.36647 7.10007 3.01337ZM5.15416 7.79404C5.15138 7.84566 5.14998 7.89765 5.14998 7.94996C5.14998 9.52478 6.42516 10.8 7.99998 10.8C9.57479 10.8 10.85 9.52478 10.85 7.94996C10.85 7.89764 10.8486 7.84566 10.8458 7.79404C10.0103 7.85613 9.04904 7.89998 7.99997 7.89998C6.9509 7.89998 5.98962 7.85613 5.15416 7.79404ZM1.92766 19.0808C1.88723 19.0459 1.88947 18.9615 1.89471 18.7647C1.89704 18.6769 1.89998 18.5667 1.89998 18.4285C1.89998 16.5359 4.67817 15.4 7.99998 15.4C11.3218 15.4 14.1 16.5359 14.1 18.4285C14.1 18.5667 14.1029 18.6769 14.1052 18.7647C14.1105 18.9615 14.1127 19.0459 14.0723 19.0808C14.0419 19.107 13.9876 19.1053 13.8924 19.1024C13.8561 19.1013 13.8138 19.1 13.7647 19.1H2.23527C2.18614 19.1 2.14389 19.1013 2.10757 19.1024C2.01239 19.1053 1.95801 19.107 1.92766 19.0808ZM7.99998 13.6C3.77276 13.6 0.0999756 15.1017 0.0999756 18.4285C0.0999756 20.1641 0.785513 20.9 2.23527 20.9H13.7647C15.2144 20.9 15.9 20.1641 15.9 18.4285C15.9 15.1017 12.2272 13.6 7.99998 13.6Z" fill="#2D66EE"/>
    </symbol>
    <symbol id="game-projects" viewBox="0 0 24 17" fill="none" xmlns="http://www.w3.org/2000/svg">
        <path d="M17.1231 0.199951C20.0274 0.199951 21.9537 2.03503 23.0158 5.07547C23.7255 7.10715 24 9.47279 24 11.8142C24 15.2212 23.1631 16.5714 20.6096 16.5714C19.3559 16.5714 18.4952 15.7779 16.972 13.8119C15.7533 12.239 15.2902 11.75 15.1308 11.75H8.86923C8.67378 11.75 8.03443 12.3659 6.83533 13.8148L6.81902 13.8345C5.03705 15.9877 4.43474 16.5714 3.39038 16.5714C0.836887 16.5714 0 15.2212 0 11.8142C0 9.47279 0.274526 7.10715 0.984243 5.07547C2.04635 2.03503 3.97265 0.199951 6.87692 0.199951H17.1231ZM17.1231 1.99995H6.87692C3.26947 1.99995 1.8 6.20654 1.8 11.8142C1.8 14.3537 2.05888 14.7714 3.39038 14.7714C3.58155 14.7714 4.21608 14.1565 5.43231 12.6869L5.44864 12.6671C7.19929 10.5518 7.82403 9.94995 8.86923 9.94995H15.1308C16.1958 9.94995 16.5317 10.3046 18.3949 12.7094C19.5176 14.1586 20.1823 14.7714 20.6096 14.7714C21.9411 14.7714 22.2 14.3537 22.2 11.8142C22.2 6.20654 20.7305 1.99995 17.1231 1.99995ZM7.14 3.71424C7.45717 3.71424 7.71429 3.97135 7.71429 4.28852L7.71371 5.42824L8.85429 5.42852C9.17145 5.42852 9.42857 5.68564 9.42857 6.00281V6.56852C9.42857 6.88569 9.17145 7.14281 8.85429 7.14281L7.71371 7.14224L7.71429 8.28281C7.71429 8.59998 7.45717 8.85709 7.14 8.85709H6.57429C6.25712 8.85709 6 8.59998 6 8.28281L5.99971 7.14224L4.86 7.14281C4.54283 7.14281 4.28571 6.88569 4.28571 6.56852V6.00281C4.28571 5.68564 4.54283 5.42852 4.86 5.42852L5.99971 5.42824L6 4.28852C6 3.97135 6.25712 3.71424 6.57429 3.71424H7.14ZM17.4257 7.14281C17.7429 7.14281 18 7.39993 18 7.71709V8.28281C18 8.59998 17.7429 8.85709 17.4257 8.85709H16.86C16.5428 8.85709 16.2857 8.59998 16.2857 8.28281V7.71709C16.2857 7.39993 16.5428 7.14281 16.86 7.14281H17.4257ZM15.7114 5.42852C16.0286 5.42852 16.2857 5.68564 16.2857 6.00281V6.56852C16.2857 6.88569 16.0286 7.14281 15.7114 7.14281H15.1457C14.8285 7.14281 14.5714 6.88569 14.5714 6.56852V6.00281C14.5714 5.68564 14.8285 5.42852 15.1457 5.42852H15.7114ZM19.14 5.42852C19.4572 5.42852 19.7143 5.68564 19.7143 6.00281V6.56852C19.7143 6.88569 19.4572 7.14281 19.14 7.14281H18.5743C18.2571 7.14281 18 6.88569 18 6.56852V6.00281C18 5.68564 18.2571 5.42852 18.5743 5.42852H19.14ZM17.4257 3.71424C17.7429 3.71424 18 3.97135 18 4.28852V4.85424C18 5.17141 17.7429 5.42852 17.4257 5.42852H16.86C16.5428 5.42852 16.2857 5.17141 16.2857 4.85424V4.28852C16.2857 3.97135 16.5428 3.71424 16.86 3.71424H17.4257Z" fill="#2D66EE"/>
    </symbol>
    <symbol id="education" viewBox="0 0 20 19" fill="none" xmlns="http://www.w3.org/2000/svg">
        <path fill-rule="evenodd" clip-rule="evenodd" d="M1.96222 5.89555L8.41711 2.22181C9.39844 1.6633 10.6015 1.6633 11.5828 2.22181L18.0377 5.89555C18.0704 5.91419 18.0795 5.92884 18.0838 5.93669C18.091 5.94949 18.0983 5.97126 18.0983 5.99984C18.0983 6.02842 18.091 6.05019 18.0838 6.063C18.0795 6.07085 18.0704 6.0855 18.0377 6.10414L11.5828 9.77787C10.6015 10.3364 9.39844 10.3364 8.41711 9.77787L1.96222 6.10413C1.92948 6.0855 1.92045 6.07085 1.91607 6.063C1.90893 6.05019 1.90158 6.02842 1.90158 5.99984C1.90158 5.97126 1.90893 5.94949 1.91607 5.93669C1.92045 5.92884 1.92948 5.91419 1.96222 5.89555ZM1.07187 7.66851C-0.221854 6.9322 -0.221852 5.06748 1.07187 4.33117L7.52676 0.657436C9.06009 -0.21524 10.9398 -0.215239 12.4732 0.657437L18.928 4.33117C19.5742 4.69896 19.8977 5.34826 19.8983 5.99786L19.9 5.9999V10.0999C19.9 10.597 19.497 10.9999 19 10.9999C18.5029 10.9999 18.1 10.597 18.1 10.0999V8.1398L12.4731 11.3423C10.9398 12.2149 9.06009 12.2149 7.52676 11.3422L1.07187 7.66851Z" fill="#3F8AE0"/>
        <path fill-rule="evenodd" clip-rule="evenodd" d="M15.2 8.09988V10.1083C15.2 11.5233 15.1994 12.5304 15.1349 13.319C15.0713 14.0971 14.9502 14.5829 14.7532 14.9696C14.3601 15.7411 13.7329 16.3683 12.9614 16.7614C12.5747 16.9585 12.0889 17.0796 11.3108 17.1431C10.9314 17.1741 10.5015 17.1904 9.99997 17.1989V18.9991C10.5434 18.9902 11.0262 18.9724 11.4573 18.9372C12.3467 18.8645 13.0958 18.7131 13.7786 18.3652C14.8888 17.7996 15.7913 16.897 16.357 15.7868C16.7049 15.104 16.8563 14.355 16.9289 13.4655C17.0001 12.5951 17.0001 11.5145 17 10.148V8.09988H15.2Z" fill="#3F8AE0"/>
        <path fill-rule="evenodd" clip-rule="evenodd" d="M4.9001 8.09988V10.1099C4.9001 11.5249 4.9008 12.532 4.96523 13.3206C5.0288 14.0987 5.14991 14.5845 5.34697 14.9713C5.74005 15.7427 6.36727 16.3699 7.13874 16.763C7.5255 16.9601 8.01129 17.0812 8.7894 17.1448C9.14325 17.1737 9.54103 17.19 9.99997 17.1989V18.9991C9.49713 18.9897 9.04732 18.9718 8.64282 18.9388C7.7534 18.8661 7.00436 18.7147 6.32156 18.3668C5.2114 17.8012 4.30881 16.8986 3.74316 15.7884C3.39526 15.1056 3.24388 14.3566 3.17121 13.4672C3.10009 12.5967 3.10009 11.5161 3.1001 10.1497V8.09988H4.9001Z" fill="#3F8AE0"/>
    </symbol>
    <symbol id="auto-transport" viewBox="0 0 22 17" fill="none" xmlns="http://www.w3.org/2000/svg">
        <path fill-rule="evenodd" clip-rule="evenodd" d="M2.12687 6.78169C2.24743 6.29948 2.73607 6.00629 3.21828 6.12685L3 6.99998C3.21828 6.12685 3.21843 6.12688 3.21828 6.12685L3.22165 6.12767L3.24233 6.13263C3.26185 6.13725 3.29279 6.14445 3.3349 6.15386C3.41912 6.17267 3.54803 6.20033 3.71968 6.23391C4.063 6.30108 4.57716 6.39194 5.24659 6.48323C6.58562 6.66582 8.54481 6.84998 11 6.84998C13.4552 6.84998 15.4144 6.66582 16.7534 6.48323C17.4228 6.39194 17.937 6.30108 18.2803 6.23391C18.452 6.20033 18.5809 6.17267 18.6651 6.15386C18.7072 6.14445 18.7381 6.13725 18.7577 6.13263L18.7784 6.12767L18.7817 6.12685C18.7819 6.12681 18.7816 6.12689 18.7817 6.12685C19.2637 6.0068 19.7526 6.29974 19.8731 6.78169C19.9937 7.26391 19.7005 7.75255 19.2183 7.87311L19 6.99998C19.2183 7.87311 19.2185 7.87306 19.2183 7.87311L19.2134 7.87432L19.2041 7.87659L19.1725 7.88417C19.1456 7.89054 19.1072 7.89945 19.0576 7.91055C18.9582 7.93275 18.8137 7.96369 18.6259 8.00042C18.2505 8.07387 17.7022 8.17051 16.9966 8.26672C15.5856 8.45913 13.5448 8.64998 11 8.64998C8.45516 8.64998 6.41436 8.45913 5.00339 8.26672C4.29783 8.17051 3.74949 8.07387 3.37406 8.00042C3.18634 7.96369 3.04181 7.93275 2.94244 7.91055C2.89276 7.89945 2.85436 7.89053 2.82749 7.88417L2.79587 7.87659L2.7866 7.87432L2.78361 7.87358L2.78252 7.87331C2.78233 7.87326 2.78172 7.8731 3 6.99998L2.78252 7.87331C2.30031 7.75275 2.00632 7.26391 2.12687 6.78169ZM3.21828 6.12685C3.2182 6.12683 3.218 6.12678 3.21828 6.12685V6.12685Z" fill="#2D66EE"/>
        <path d="M20 12.5C20 13.3284 19.3284 14 18.5 14H18V15.2C18 15.48 18 15.62 18.0545 15.727C18.1024 15.8211 18.1789 15.8975 18.273 15.9455C18.38 16 18.52 16 18.8 16H19.2C19.48 16 19.62 16 19.727 15.9455C19.8211 15.8975 19.8976 15.8211 19.9455 15.727C20 15.62 20 15.48 20 15.2V12.5Z" fill="#2D66EE"/>
        <path fill-rule="evenodd" clip-rule="evenodd" d="M19.1 15.1H18.9V14.8668C18.9677 14.8554 19.0344 14.8413 19.1 14.8244V15.1ZM20.9 12.5V15.2C20.9 15.2073 20.9 15.2146 20.9 15.2221C20.9 15.3423 20.9001 15.4806 20.8902 15.6017C20.8788 15.7407 20.8501 15.9341 20.7474 16.1356C20.6132 16.399 20.399 16.6132 20.1356 16.7474C19.9341 16.8501 19.7407 16.8788 19.6017 16.8902C19.4806 16.9001 19.3423 16.9 19.2221 16.9C19.2147 16.9 19.2073 16.9 19.2 16.9H18.8C18.7927 16.9 18.7853 16.9 18.7779 16.9C18.6577 16.9 18.5194 16.9001 18.3983 16.8902C18.2593 16.8788 18.0659 16.8501 17.8644 16.7474C17.601 16.6132 17.3868 16.399 17.2526 16.1356C17.1499 15.9341 17.1212 15.7407 17.1098 15.6017C17.0999 15.4806 17.1 15.3423 17.1 15.2221C17.1 15.2146 17.1 15.2073 17.1 15.2V13.1H18.5C18.8314 13.1 19.1 12.8313 19.1 12.5H20.9Z" fill="#2D66EE"/>
        <path d="M2 12.5C2 13.3284 2.67157 14 3.5 14H4V15.2C4 15.48 4 15.62 3.9455 15.727C3.89757 15.8211 3.82108 15.8975 3.727 15.9455C3.62004 16 3.48003 16 3.2 16H2.8C2.51997 16 2.37996 16 2.273 15.9455C2.17892 15.8975 2.10243 15.8211 2.0545 15.727C2 15.62 2 15.48 2 15.2V12.5Z" fill="#2D66EE"/>
        <path fill-rule="evenodd" clip-rule="evenodd" d="M2.9 15.1H3.1V14.8668C3.03233 14.8554 2.96562 14.8413 2.9 14.8244V15.1ZM1.1 12.5V15.2C1.1 15.2073 1.1 15.2146 1.1 15.2221C1.09996 15.3423 1.09991 15.4806 1.1098 15.6017C1.12116 15.7407 1.14992 15.9341 1.25259 16.1356C1.38681 16.399 1.60099 16.6132 1.86441 16.7474C2.06591 16.8501 2.25928 16.8788 2.39831 16.8902C2.51935 16.9001 2.65766 16.9 2.7779 16.9C2.78534 16.9 2.79271 16.9 2.8 16.9H3.2C3.20729 16.9 3.21466 16.9 3.2221 16.9C3.34234 16.9 3.48065 16.9001 3.60169 16.8902C3.74072 16.8788 3.93409 16.8501 4.13559 16.7474C4.39901 16.6132 4.61319 16.399 4.74741 16.1356C4.85008 15.9341 4.87884 15.7407 4.8902 15.6017C4.90009 15.4806 4.90004 15.3423 4.9 15.2221C4.9 15.2146 4.9 15.2073 4.9 15.2V13.1H3.5C3.16863 13.1 2.9 12.8313 2.9 12.5H1.1Z" fill="#2D66EE"/>
        <path fill-rule="evenodd" clip-rule="evenodd" d="M8.66232 0.0999762H13.3377C14.2008 0.0999574 14.9166 0.0999417 15.5047 0.160755C16.124 0.224788 16.6776 0.361912 17.1962 0.682439C17.7149 1.00297 18.0851 1.43678 18.4193 1.96208C18.7368 2.46096 19.0569 3.10119 19.4428 3.87317L20.9 6.78752V14.9H1.1V6.78752L2.55718 3.87316C2.94314 3.10119 3.26324 2.46096 3.58067 1.96208C3.91491 1.43678 4.28513 1.00297 4.80375 0.682439C5.32237 0.361912 5.87596 0.224788 6.49527 0.160755C7.08344 0.0999417 7.79923 0.0999574 8.66232 0.0999762ZM6.68039 1.95121C6.21635 1.99919 5.9564 2.08609 5.75007 2.21361C5.54373 2.34113 5.34976 2.53477 5.09932 2.92837C4.83768 3.33956 4.55833 3.89579 4.14663 4.71919L2.9 7.21245V13.1H19.1V7.21245L17.8534 4.71919C17.4417 3.89579 17.1623 3.33956 16.9007 2.92837C16.6502 2.53477 16.4563 2.34113 16.2499 2.21361C16.0436 2.08609 15.7836 1.99919 15.3196 1.95121C14.8348 1.90109 14.2124 1.89998 13.2918 1.89998H8.70821C7.78762 1.89998 7.16518 1.90109 6.68039 1.95121Z" fill="#2D66EE"/>
        <path fill-rule="evenodd" clip-rule="evenodd" d="M0 6.61442V6.38514C0 5.89628 0.396302 5.49998 0.885165 5.49998H3V6.99998L2.63731 7.72536C2.54886 7.90226 2.39856 8.04055 2.21493 8.11401C1.15403 8.53837 0 7.75705 0 6.61442ZM22 6.61442V6.38514C22 5.89628 21.6037 5.49998 21.1148 5.49998H19V6.99998L19.3627 7.72536C19.4511 7.90226 19.6014 8.04055 19.7851 8.11401C20.846 8.53837 22 7.75705 22 6.61442Z" fill="#2D66EE"/>
        <path fill-rule="evenodd" clip-rule="evenodd" d="M4.10695 10.3883C4.1686 9.89513 4.61841 9.54527 5.11163 9.60693L7.11163 9.85693C7.60485 9.91858 7.9547 10.3684 7.89305 10.8616C7.8314 11.3548 7.38159 11.7047 6.88837 11.643L4.88837 11.393C4.39515 11.3314 4.0453 10.8816 4.10695 10.3883Z" fill="#2D66EE"/>
        <path fill-rule="evenodd" clip-rule="evenodd" d="M17.8931 10.3883C17.8314 9.89513 17.3816 9.54527 16.8884 9.60693L14.8884 9.85693C14.3952 9.91858 14.0453 10.3684 14.107 10.8616C14.1686 11.3548 14.6184 11.7047 15.1116 11.643L17.1116 11.393C17.6048 11.3314 17.9547 10.8816 17.8931 10.3883Z" fill="#2D66EE"/>
    </symbol>
    <symbol id="medicine-health" viewBox="0 0 20 17" fill="none" xmlns="http://www.w3.org/2000/svg">
        <path d="M13.5 3.5C13.9971 3.5 14.4 3.90294 14.4 4.4V5.1H15.1C15.5971 5.1 16 5.50294 16 6C16 6.49706 15.5971 6.9 15.1 6.9H14.4V7.6C14.4 8.09706 13.9971 8.5 13.5 8.5C13.0029 8.5 12.6 8.09706 12.6 7.6V6.9H11.9C11.4029 6.9 11 6.49706 11 6C11 5.50294 11.4029 5.1 11.9 5.1H12.6V4.4C12.6 3.90294 13.0029 3.5 13.5 3.5Z" fill="#2D66EE"/>
        <path fill-rule="evenodd" clip-rule="evenodd" d="M10.111 1.69952C11.2389 0.643336 12.5405 0.0698058 13.9918 0.00598621L14.2656 0C17.4228 0 20 2.56027 20 5.71723C20 8.67599 18.9647 10.144 14.4269 13.7784L13.4937 14.5182L11.1296 16.3607C10.4655 16.8783 9.53455 16.8783 8.87045 16.3607L6.18242 14.263C1.12733 10.2688 0 8.80463 0 5.71723C0 2.56027 2.57716 0 5.73438 0C7.2746 0 8.66256 0.576055 9.87226 1.69501L9.994 1.813L10.111 1.69952ZM18.2 5.71723C18.2 3.55704 16.4314 1.8 14.2656 1.8C12.9087 1.8 11.7389 2.41565 10.702 3.70812C10.3441 4.15426 9.66623 4.15771 9.30377 3.71525C8.24077 2.41758 7.06729 1.8 5.73438 1.8C3.56863 1.8 1.8 3.55704 1.8 5.71723C1.8 7.96676 2.59678 9.09768 6.73899 12.4066L7.6128 13.0984L9.97695 14.941C9.9905 14.9515 10.0095 14.9515 10.0231 14.941L12.686 12.8631C17.1332 9.35205 18.1192 8.16744 18.1951 6.01083L18.2 5.71723Z" fill="#2D66EE"/>
    </symbol>
    <symbol id="restaurants-food-delivery" viewBox="0 0 20 20" fill="none" xmlns="http://www.w3.org/2000/svg">
        <path fill-rule="evenodd" clip-rule="evenodd" d="M3.62599 0.731866C3.97747 0.380394 4.54732 0.380394 4.89879 0.731866L11.2163 7.04934C11.2327 7.06576 11.2483 7.08266 11.2632 7.09998H17.6667C17.6885 7.09998 17.7107 7.09993 17.7332 7.09987C17.9709 7.09925 18.2447 7.09853 18.4918 7.16472C19.1474 7.34041 19.6596 7.85255 19.8353 8.50823C19.9015 8.75526 19.9007 9.02909 19.9001 9.26673C19.9001 9.28927 19.9 9.31148 19.9 9.33332C19.9 9.38542 19.9 9.43683 19.9 9.48756C19.9003 10.8896 19.9004 11.7751 19.699 12.527C19.1872 14.437 17.756 15.9547 15.9 16.5857V17.02C15.9 17.0489 15.9 17.0777 15.9001 17.1063C15.9006 17.4645 15.901 17.7992 15.8246 18.0968C15.6069 18.9448 14.9448 19.6069 14.0969 19.8246C13.7992 19.901 13.4645 19.9005 13.1064 19.9001C13.0777 19.9 13.0489 19.9 13.02 19.9H6.98C6.95107 19.9 6.92228 19.9 6.89365 19.9001C6.53547 19.9005 6.20077 19.901 5.90315 19.8246C5.05523 19.6069 4.39311 18.9448 4.1754 18.0968C4.09898 17.7992 4.09944 17.4645 4.09992 17.1063C4.09996 17.0777 4.1 17.0489 4.1 17.02V16.5857C2.24397 15.9547 0.812812 14.437 0.301039 12.527C0.0995626 11.7751 0.0997251 10.8896 0.0999822 9.48759C0.0999915 9.43685 0.100001 9.38543 0.100001 9.33332C0.100001 9.31148 0.099943 9.28927 0.0998841 9.26673C0.0992635 9.02909 0.0985485 8.75526 0.164742 8.50823C0.34043 7.85255 0.85257 7.34041 1.50824 7.16472C1.75528 7.09853 2.02911 7.09925 2.26675 7.09987C2.28929 7.09993 2.3115 7.09998 2.33333 7.09998H4.47868L1.50467 4.12598C1.1532 3.77451 1.1532 3.20466 1.50467 2.85319C1.85615 2.50171 2.42599 2.50171 2.77747 2.85319L7.02426 7.09998H8.72132L3.62599 2.00466C3.27452 1.65319 3.27452 1.08334 3.62599 0.731866ZM7.66667 15.1H12.3333C13.9412 15.1 14.5686 15.0923 15.0612 14.9603C16.476 14.5812 17.5812 13.476 17.9603 12.0611C18.0923 11.5686 18.1 10.9412 18.1 9.33332C18.1 9.17017 18.0998 9.07782 18.0967 9.00969C18.0956 8.98711 18.0945 8.97286 18.0937 8.96502C18.0836 8.93787 18.0621 8.91642 18.035 8.9063C18.0271 8.90552 18.0129 8.90434 17.9903 8.90331C17.9222 8.9002 17.8298 8.89998 17.6667 8.89998H2.33333C2.17018 8.89998 2.07784 8.9002 2.0097 8.90331C1.98713 8.90434 1.97287 8.90552 1.96503 8.9063C1.93789 8.91642 1.91644 8.93787 1.90631 8.96501C1.90553 8.97285 1.90436 8.98711 1.90333 9.00968C1.90022 9.07782 1.9 9.17016 1.9 9.33332C1.9 10.9412 1.90773 11.5686 2.03971 12.0611C2.41882 13.476 3.52397 14.5812 4.93884 14.9603C5.43138 15.0923 6.05877 15.1 7.66667 15.1ZM5.9 16.9V17.02C5.9 17.5219 5.90713 17.6035 5.91885 17.6492C5.97328 17.8612 6.13881 18.0267 6.35079 18.0811C6.39644 18.0929 6.47812 18.1 6.98 18.1H13.02C13.5219 18.1 13.6036 18.0929 13.6492 18.0811C13.8612 18.0267 14.0267 17.8612 14.0812 17.6492C14.0929 17.6035 14.1 17.5219 14.1 17.02V16.9H12.7789C12.6843 16.9 12.5873 16.9 12.4876 16.9C12.4369 16.9 12.3855 16.9 12.3333 16.9H7.66667C7.61455 16.9 7.56313 16.9 7.51239 16.9C7.41274 16.9 7.31571 16.9 7.22115 16.9H5.9Z" fill="#2D66EE"/>
    </symbol>
    <symbol id="marketplaces" viewBox="0 0 18 20" fill="none" xmlns="http://www.w3.org/2000/svg">
        <path d="M9.00001 0.0999756C11.7614 0.0999756 14 2.33855 14 5.09998H14.0542C15.3915 5.09998 15.8764 5.23921 16.3653 5.50067C16.8542 5.76214 17.2378 6.14582 17.4993 6.63471C17.7608 7.1236 17.9 7.60852 17.9 8.9458V13.8343C17.9 15.9234 17.6795 16.6959 17.2656 17.47C16.8516 18.2441 16.2441 18.8516 15.47 19.2655C14.6959 19.6795 13.9234 19.9 11.8344 19.9H6.16565C4.07659 19.9 3.30407 19.6795 2.53 19.2655C1.75592 18.8516 1.14843 18.2441 0.734446 17.47C0.320467 16.6959 0.100006 15.9234 0.100006 13.8343V8.9458C0.100006 7.60852 0.239245 7.1236 0.500705 6.63471C0.762166 6.14582 1.14585 5.76214 1.63474 5.50067C2.12363 5.23921 2.60856 5.09998 3.94583 5.09998H4.00001C4.00001 2.33855 6.23858 0.0999756 9.00001 0.0999756ZM14.2469 6.90075L3.94583 6.89998C2.99835 6.89998 2.7428 6.94932 2.48362 7.08794C2.30841 7.18164 2.18167 7.30838 2.08797 7.48358C1.94935 7.74277 1.90001 7.99831 1.90001 8.9458V13.8343C1.90001 15.4693 2.01053 16.0393 2.32171 16.6211C2.56793 17.0815 2.91848 17.4321 3.37888 17.6783C3.96073 17.9895 4.53064 18.1 6.16565 18.1H11.8344C13.4694 18.1 14.0393 17.9895 14.6211 17.6783C15.0815 17.4321 15.4321 17.0815 15.6783 16.6211C15.9895 16.0393 16.1 15.4693 16.1 13.8343V8.9458C16.1 7.99831 16.0507 7.74277 15.912 7.48358C15.8183 7.30838 15.6916 7.18164 15.5164 7.08794C15.2757 6.95922 15.0382 6.90748 14.2469 6.90075ZM12.946 7.99998C13.1514 7.99998 13.2941 8.03478 13.4163 8.10015C13.5385 8.16551 13.6345 8.26144 13.6998 8.38366C13.7652 8.50588 13.8 8.64861 13.8 8.85396V8.94599C13.8 9.15134 13.7652 9.29407 13.6998 9.41629C13.6345 9.53851 13.5385 9.63444 13.4163 9.6998C13.2941 9.76517 13.1514 9.79998 12.946 9.79998H12.854C12.6486 9.79998 12.5059 9.76517 12.3837 9.6998C12.2615 9.63444 12.1655 9.53851 12.1002 9.41629C12.0348 9.29407 12 9.15134 12 8.94599V8.85396C12 8.64861 12.0348 8.50588 12.1002 8.38366C12.1655 8.26144 12.2615 8.16551 12.3837 8.10015C12.5059 8.03478 12.6486 7.99998 12.854 7.99998H12.946ZM4.94602 7.99998C5.15137 7.99998 5.2941 8.03478 5.41632 8.10015C5.53855 8.16551 5.63447 8.26144 5.69983 8.38366C5.7652 8.50588 5.80001 8.64861 5.80001 8.85396V8.94599C5.80001 9.15134 5.7652 9.29407 5.69983 9.41629C5.63447 9.53851 5.53855 9.63444 5.41632 9.6998C5.2941 9.76517 5.15137 9.79998 4.94602 9.79998H4.85399C4.64864 9.79998 4.50591 9.76517 4.38369 9.6998C4.26147 9.63444 4.16555 9.53851 4.10018 9.41629C4.03482 9.29407 4.00001 9.15134 4.00001 8.94599V8.85396C4.00001 8.64861 4.03482 8.50588 4.10018 8.38366C4.16555 8.26144 4.26147 8.16551 4.38369 8.10015C4.50591 8.03478 4.64864 7.99998 4.85399 7.99998H4.94602ZM9.00001 1.89998C7.23269 1.89998 5.80001 3.33266 5.80001 5.09998H12.2C12.2 3.33266 10.7673 1.89998 9.00001 1.89998Z" fill="#2D66EE"/>
    </symbol>
    <symbol id="ar-technology" viewBox="0 0 20 20" fill="none" xmlns="http://www.w3.org/2000/svg">
        <path fill-rule="evenodd" clip-rule="evenodd" d="M2.99965 2.99962C4.79021 1.20906 7.26645 0.0999756 10 0.0999756C12.7336 0.0999756 15.2098 1.20906 17.0004 2.99962C18.7909 4.79018 19.9 7.26641 19.9 9.99998C19.9 12.7335 18.7909 15.2098 17.0004 17.0003C15.2098 18.7909 12.7336 19.9 10 19.9C7.26644 19.9 4.79021 18.7909 2.99965 17.0003C1.20909 15.2098 0.100006 12.7335 0.100006 9.99998C0.100006 7.26641 1.20909 4.79018 2.99965 2.99962ZM10 1.89998C7.763 1.89998 5.73924 2.80561 4.27244 4.27241C2.80564 5.73921 1.90001 7.76297 1.90001 9.99998C1.90001 12.237 2.80564 14.2607 4.27244 15.7275C5.73924 17.1943 7.763 18.1 10 18.1C12.237 18.1 14.2608 17.1943 15.7276 15.7275C17.1944 14.2607 18.1 12.237 18.1 9.99998C18.1 7.76297 17.1944 5.73921 15.7276 4.27241C14.2608 2.80561 12.237 1.89998 10 1.89998Z" fill="#2D66EE"/>
        <path fill-rule="evenodd" clip-rule="evenodd" d="M5.82808 5.82805C6.89478 4.76134 8.37101 4.09998 10 4.09998C11.629 4.09998 13.1052 4.76134 14.1719 5.82805C15.2386 6.89475 15.9 8.37098 15.9 9.99998C15.9 11.629 15.2386 13.1052 14.1719 14.1719C13.1052 15.2386 11.629 15.9 10 15.9C8.37101 15.9 6.89478 15.2386 5.82808 14.1719C4.76137 13.1052 4.10001 11.629 4.10001 9.99998C4.10001 8.37098 4.76137 6.89475 5.82808 5.82805ZM10 5.89998C8.86757 5.89998 7.84381 6.3579 7.10087 7.10084C6.35793 7.84378 5.90001 8.86754 5.90001 9.99998C5.90001 11.1324 6.35793 12.1562 7.10087 12.8991C7.84381 13.6421 8.86757 14.1 10 14.1C11.1324 14.1 12.1562 13.6421 12.8991 12.8991C13.6421 12.1562 14.1 11.1324 14.1 9.99998C14.1 8.86754 13.6421 7.84378 12.8991 7.10084C12.1562 6.3579 11.1324 5.89998 10 5.89998Z" fill="#2D66EE"/>
        <path fill-rule="evenodd" clip-rule="evenodd" d="M11.3435 8.65647C11.0007 8.31363 10.5244 8.09998 10 8.09998C9.47558 8.09998 8.99935 8.31363 8.6565 8.65647C8.31366 8.99932 8.10001 9.47555 8.10001 9.99998C8.10001 10.5244 8.31366 11.0006 8.6565 11.3435C8.99935 11.6863 9.47558 11.9 10 11.9C10.5244 11.9 11.0007 11.6863 11.3435 11.3435C11.6864 11.0006 11.9 10.5244 11.9 9.99998C11.9 9.47555 11.6864 8.99932 11.3435 8.65647Z" fill="#2D66EE"/>
    </symbol>
    <symbol id="tv-series" viewBox="0 0 20 20" fill="none" xmlns="http://www.w3.org/2000/svg">
        <path d="M5.25 13.75H6.25C6.66421 13.75 7 14.0858 7 14.5V15.5C7 15.9142 6.66421 16.25 6.25 16.25H5.25C4.83579 16.25 4.5 15.9142 4.5 15.5V14.5C4.5 14.0858 4.83579 13.75 5.25 13.75Z" fill="#2D66EE"/>
        <path d="M13.75 13.75H14.75C15.1642 13.75 15.5 14.0858 15.5 14.5V15.5C15.5 15.9142 15.1642 16.25 14.75 16.25H13.75C13.3358 16.25 13 15.9142 13 15.5V14.5C13 14.0858 13.3358 13.75 13.75 13.75Z" fill="#2D66EE"/>
        <path d="M5.25 8.75H6.25C6.66421 8.75 7 9.08579 7 9.5V10.5C7 10.9142 6.66421 11.25 6.25 11.25H5.25C4.83579 11.25 4.5 10.9142 4.5 10.5V9.5C4.5 9.08579 4.83579 8.75 5.25 8.75Z" fill="#2D66EE"/>
        <path d="M13.75 8.75H14.75C15.1642 8.75 15.5 9.08579 15.5 9.5V10.5C15.5 10.9142 15.1642 11.25 14.75 11.25H13.75C13.3358 11.25 13 10.9142 13 10.5V9.5C13 9.08579 13.3358 8.75 13.75 8.75Z" fill="#2D66EE"/>
        <path d="M5.25 3.75H6.25C6.66421 3.75 7 4.08579 7 4.5V5.5C7 5.91421 6.66421 6.25 6.25 6.25H5.25C4.83579 6.25 4.5 5.91421 4.5 5.5V4.5C4.5 4.08579 4.83579 3.75 5.25 3.75Z" fill="#2D66EE"/>
        <path d="M13.75 3.75H14.75C15.1642 3.75 15.5 4.08579 15.5 4.5V5.5C15.5 5.91421 15.1642 6.25 14.75 6.25H13.75C13.3358 6.25 13 5.91421 13 5.5V4.5C13 4.08579 13.3358 3.75 13.75 3.75Z" fill="#2D66EE"/>
        <path fill-rule="evenodd" clip-rule="evenodd" d="M7.46131 0.0999758H12.5387C13.556 0.0999676 14.3742 0.0999609 15.0363 0.154056C15.7173 0.209694 16.312 0.327013 16.8611 0.606796C17.736 1.05261 18.4474 1.76397 18.8932 2.63892C19.173 3.18803 19.2903 3.78272 19.3459 4.46369C19.4 5.12579 19.4 5.944 19.4 6.96128V13.0387C19.4 14.0559 19.4 14.8742 19.3459 15.5363C19.2903 16.2172 19.173 16.8119 18.8932 17.361C18.4474 18.236 17.736 18.9473 16.8611 19.3932C16.312 19.6729 15.7173 19.7903 15.0363 19.8459C14.3742 19.9 13.556 19.9 12.5387 19.9H7.46131C6.44404 19.9 5.62582 19.9 4.96373 19.8459C4.28275 19.7903 3.68806 19.6729 3.13895 19.3932C2.264 18.9473 1.55264 18.236 1.10683 17.361C0.827043 16.8119 0.709725 16.2172 0.654087 15.5363C0.599991 14.8742 0.599998 14.0559 0.600006 13.0387V6.96127C0.599998 5.944 0.599991 5.12579 0.654087 4.46369C0.709725 3.78272 0.827043 3.18803 1.10683 2.63892C1.55264 1.76397 2.264 1.05261 3.13895 0.606796C3.68806 0.327013 4.28275 0.209694 4.96373 0.154056C5.62582 0.099961 6.44404 0.0999676 7.46131 0.0999758ZM5.1103 1.94808C4.54064 1.99462 4.2092 2.08167 3.95613 2.21061C3.41987 2.48385 2.98388 2.91984 2.71064 3.4561C2.5817 3.70917 2.49465 4.04061 2.44811 4.61027C2.40071 5.19044 2.40001 5.93503 2.40001 6.99998V13C2.40001 14.0649 2.40071 14.8095 2.44811 15.3897C2.49465 15.9593 2.5817 16.2908 2.71064 16.5438C2.98388 17.0801 3.41987 17.5161 3.95613 17.7893C4.2092 17.9183 4.54064 18.0053 5.1103 18.0519C5.69047 18.0993 6.43506 18.1 7.50001 18.1H12.5C13.565 18.1 14.3095 18.0993 14.8897 18.0519C15.4594 18.0053 15.7908 17.9183 16.0439 17.7893C16.5801 17.5161 17.0161 17.0801 17.2894 16.5438C17.4183 16.2908 17.5054 15.9593 17.5519 15.3897C17.5993 14.8095 17.6 14.0649 17.6 13V6.99998C17.6 5.93503 17.5993 5.19044 17.5519 4.61027C17.5054 4.04061 17.4183 3.70917 17.2894 3.4561C17.0161 2.91984 16.5801 2.48385 16.0439 2.21061C15.7908 2.08167 15.4594 1.99462 14.8897 1.94808C14.3095 1.90068 13.565 1.89998 12.5 1.89998H7.50001C6.43506 1.89998 5.69047 1.90068 5.1103 1.94808Z" fill="#2D66EE"/>
    </symbol>
    <symbol id="startups" viewBox="0 0 20 18" fill="none" xmlns="http://www.w3.org/2000/svg">
        <path fill-rule="evenodd" clip-rule="evenodd" d="M9.16461 0.0999762H9.20001H10.8H10.8354H10.8354C11.3653 0.099962 11.8165 0.0999498 12.1869 0.130215C12.5761 0.162011 12.9546 0.231645 13.3166 0.416059C13.8623 0.694091 14.3059 1.13773 14.5839 1.6834C14.7683 2.04534 14.838 2.42393 14.8698 2.81309C14.8988 3.16838 14.9 3.59795 14.9 4.09998H15.8L15.8354 4.09998C16.3653 4.09996 16.8165 4.09995 17.1869 4.13021C17.5761 4.16201 17.9546 4.23164 18.3166 4.41606C18.8623 4.69409 19.3059 5.13773 19.5839 5.6834C19.7683 6.04534 19.838 6.42393 19.8698 6.81309C19.9 7.18351 19.9 7.63468 19.9 8.16453V8.16455V8.16457V8.19998V9.59998V9.63332C19.9 10.0248 19.9 10.3713 19.8766 10.6585C19.8516 10.9642 19.7956 11.2811 19.6384 11.5896C19.4083 12.0411 19.0412 12.4083 18.5896 12.6384C18.3617 12.7545 18.1292 12.8154 17.9 12.8494V13.4V13.4361C17.9 14.0354 17.9 14.539 17.8664 14.9511C17.8312 15.3819 17.7547 15.7914 17.5567 16.18C17.2547 16.7728 16.7728 17.2546 16.1801 17.5566C15.7914 17.7547 15.3819 17.8311 14.9511 17.8663C14.539 17.9 14.0355 17.9 13.4362 17.9H13.4362L13.4 17.9H6.60001L6.56387 17.9H6.56377C5.96453 17.9 5.46099 17.9 5.04892 17.8663C4.61808 17.8311 4.20861 17.7547 3.81994 17.5566C3.22723 17.2546 2.74534 16.7728 2.44334 16.18C2.2453 15.7914 2.16885 15.3819 2.13365 14.9511C2.09998 14.539 2.1 14.0354 2.10001 13.4361L2.10001 13.4V12.8494C1.8708 12.8154 1.63832 12.7545 1.41043 12.6384C0.958843 12.4083 0.59169 12.0411 0.361593 11.5896C0.204428 11.2811 0.148418 10.9642 0.123434 10.6585C0.0999738 10.3713 0.0999894 10.0248 0.100007 9.63336V9.63331L0.100009 9.59998V8.19998L0.100007 8.16457V8.16451C0.0999937 7.63467 0.0999822 7.18351 0.130247 6.81309C0.162042 6.42393 0.231676 6.04534 0.41609 5.6834C0.694123 5.13773 1.13777 4.69409 1.68344 4.41606C2.04537 4.23164 2.42396 4.16201 2.81312 4.13021C3.18356 4.09995 3.63474 4.09996 4.16461 4.09998L4.20001 4.09998H5.10001C5.10004 3.59795 5.10122 3.16838 5.13025 2.81309C5.16204 2.42393 5.23168 2.04534 5.41609 1.6834C5.69412 1.13773 6.13777 0.694091 6.68344 0.416059C7.04537 0.231645 7.42396 0.162011 7.81312 0.130215C8.18355 0.0999498 8.63472 0.099962 9.16458 0.0999762H9.16461ZM3.40001 11.1H16.6C17.0349 11.1 17.3069 11.0993 17.5119 11.0825C17.7064 11.0666 17.76 11.0409 17.7724 11.0346C17.8853 10.9771 17.9771 10.8853 18.0346 10.7724C18.0409 10.76 18.0667 10.7064 18.0826 10.5119C18.0993 10.3069 18.1 10.0349 18.1 9.59998V8.19998C18.1 7.62507 18.0993 7.24802 18.0758 6.95967C18.053 6.68182 18.0137 6.56648 17.9801 6.50059C17.8747 6.29361 17.7064 6.12533 17.4994 6.01987C17.4335 5.9863 17.3182 5.94694 17.0403 5.92424C16.752 5.90068 16.3749 5.89998 15.8 5.89998H14.9V5.89999H14H6.00001H5.10001V5.89998H4.20001C3.62511 5.89998 3.24806 5.90068 2.9597 5.92424C2.68185 5.94694 2.56651 5.9863 2.50062 6.01987C2.29364 6.12533 2.12536 6.29361 2.0199 6.50059C1.98633 6.56648 1.94697 6.68182 1.92427 6.95967C1.90071 7.24802 1.90001 7.62507 1.90001 8.19998V9.59998C1.90001 10.0349 1.90071 10.3069 1.91746 10.5119C1.93335 10.7064 1.95908 10.76 1.96541 10.7724C2.02293 10.8853 2.11472 10.9771 2.22761 11.0346C2.24003 11.0409 2.29363 11.0666 2.4881 11.0825C2.69308 11.0993 2.96512 11.1 3.40001 11.1ZM3.90001 12.9V13.4C3.90001 14.0449 3.90071 14.4744 3.92767 14.8045C3.95378 15.124 3.99995 15.2702 4.04715 15.3629C4.17658 15.6169 4.3831 15.8234 4.63712 15.9528C4.72975 16 4.87597 16.0462 5.1955 16.0723C5.52554 16.0993 5.9551 16.1 6.60001 16.1H13.4C14.0449 16.1 14.4745 16.0993 14.8045 16.0723C15.1241 16.0462 15.2703 16 15.3629 15.9528C15.6169 15.8234 15.8234 15.6169 15.9529 15.3629C16.0001 15.2702 16.0462 15.124 16.0723 14.8045C16.0993 14.4744 16.1 14.0449 16.1 13.4V12.9H3.90001ZM13.0757 2.95967C13.0979 3.23096 13.0998 3.58076 13.1 4.09998H6.90002C6.90017 3.58076 6.9021 3.23096 6.92427 2.95967C6.94697 2.68182 6.98633 2.56648 7.0199 2.50059C7.12536 2.29361 7.29364 2.12533 7.50062 2.01987C7.56651 1.9863 7.68185 1.94694 7.9597 1.92424C8.24806 1.90068 8.62511 1.89998 9.20001 1.89998H10.8C11.3749 1.89998 11.752 1.90068 12.0403 1.92424C12.3182 1.94694 12.4335 1.9863 12.4994 2.01987C12.7064 2.12533 12.8747 2.29361 12.9801 2.50059C13.0137 2.56648 13.053 2.68182 13.0757 2.95967Z" fill="#2D66EE"/>
    </symbol>
    <symbol id="religion" viewBox="0 0 18 19" fill="none" xmlns="http://www.w3.org/2000/svg">
        <path d="M3.37366 5.39668C3.19965 5.48866 3.0114 5.3004 3.10338 5.12639L4.09522 3.25002L3.10338 1.37365C3.0114 1.19965 3.19965 1.01139 3.37366 1.10337L5.25003 2.09521L7.1264 1.10337C7.30041 1.01139 7.48866 1.19965 7.39668 1.37365L6.40484 3.25002L7.39668 5.12639C7.48866 5.3004 7.30041 5.48866 7.1264 5.39668L5.25003 4.40484L3.37366 5.39668Z" fill="#2D66EE"/>
        <path d="M15.25 3.90484L13.3737 4.89668C13.1997 4.98866 13.0114 4.8004 13.1034 4.62639L14.0952 2.75002L13.1034 0.873655C13.0114 0.699647 13.1997 0.511393 13.3737 0.603373L15.25 1.59521L17.1264 0.603373C17.3004 0.511393 17.4887 0.699647 17.3967 0.873655L16.4048 2.75002L17.3967 4.62639C17.4887 4.8004 17.3004 4.98866 17.1264 4.89668L15.25 3.90484Z" fill="#2D66EE"/>
        <path d="M13.3737 14.3967C13.1997 14.4887 13.0114 14.3004 13.1034 14.1264L14.0952 12.25L13.1034 10.3737C13.0114 10.1996 13.1997 10.0114 13.3737 10.1034L15.25 11.0952L17.1264 10.1034C17.3004 10.0114 17.4887 10.1996 17.3967 10.3737L16.4048 12.25L17.3967 14.1264C17.4887 14.3004 17.3004 14.4887 17.1264 14.3967L15.25 13.4048L13.3737 14.3967Z" fill="#2D66EE"/>
        <path fill-rule="evenodd" clip-rule="evenodd" d="M11.1364 7.36364C11.4879 7.71511 11.4879 8.28496 11.1364 8.63643L1.6364 18.1364C1.28493 18.4879 0.715082 18.4879 0.36361 18.1364C0.0121382 17.785 0.0121381 17.2151 0.36361 16.8636L9.86361 7.36364C10.2151 7.01216 10.7849 7.01216 11.1364 7.36364Z" fill="#2D66EE"/>
    </symbol>
    <symbol id="online-sources" viewBox="0 0 20 20" fill="none" xmlns="http://www.w3.org/2000/svg">
        <path fill-rule="evenodd" clip-rule="evenodd" d="M9.99998 13.6373L13.3 11.732C14.6333 10.9622 14.6333 9.03774 13.3 8.26794L9.99998 6.36267C8.66664 5.59287 6.99997 6.55512 6.99997 8.09473L6.99997 11.9053C6.99997 13.4449 8.66664 14.4071 9.99998 13.6373ZM12.4 9.82678C12.5333 9.90376 12.5333 10.0962 12.4 10.1732L9.09998 12.0785C8.96664 12.1555 8.79997 12.0592 8.79997 11.9053V8.09473C8.79997 7.94076 8.96664 7.84453 9.09998 7.92152L12.4 9.82678Z" fill="#2D66EE"/>
        <path fill-rule="evenodd" clip-rule="evenodd" d="M2.99965 2.99962C4.79021 1.20906 7.26645 0.0999756 10 0.0999756C12.7336 0.0999756 15.2098 1.20906 17.0004 2.99962C18.7909 4.79018 19.9 7.26641 19.9 9.99998C19.9 12.7335 18.7909 15.2098 17.0004 17.0003C15.2098 18.7909 12.7336 19.9 10 19.9C7.26644 19.9 4.79021 18.7909 2.99965 17.0003C1.20909 15.2098 0.100006 12.7335 0.100006 9.99998C0.100006 7.26641 1.20909 4.79018 2.99965 2.99962ZM10 1.89998C7.763 1.89998 5.73924 2.80561 4.27244 4.27241C2.80564 5.73921 1.90001 7.76297 1.90001 9.99998C1.90001 12.237 2.80564 14.2607 4.27244 15.7275C5.73924 17.1943 7.763 18.1 10 18.1C12.237 18.1 14.2608 17.1943 15.7276 15.7275C17.1944 14.2607 18.1 12.237 18.1 9.99998C18.1 7.76297 17.1944 5.73921 15.7276 4.27241C14.2608 2.80561 12.237 1.89998 10 1.89998Z" fill="#2D66EE"/>
    </symbol>
    <symbol id="footer-phone" width="14" height="20" viewBox="0 0 14 20" fill="none" xmlns="http://www.w3.org/2000/svg">
        <path fill-rule="evenodd" clip-rule="evenodd" d="M6.17998 1.9001H7.81997C8.91377 1.9001 9.62587 1.9015 10.1692 1.94589C10.6916 1.98857 10.8976 2.06184 11.0079 2.11808C11.3843 2.30983 11.6902 2.61579 11.882 2.99212C11.9382 3.10251 12.0115 3.3085 12.0542 3.83084C12.0986 4.3742 12.1 5.0863 12.1 6.1801V13.8201C12.1 14.9139 12.0986 15.626 12.0542 16.1694C12.0115 16.6917 11.9382 16.8977 11.882 17.0081C11.6902 17.3844 11.3843 17.6904 11.0079 17.8821C10.8976 17.9384 10.6916 18.0117 10.1692 18.0543C9.62587 18.0987 8.91377 18.1001 7.81997 18.1001H6.17998C5.08618 18.1001 4.37408 18.0987 3.83072 18.0543C3.30838 18.0117 3.10238 17.9384 2.99199 17.8821C2.61567 17.6904 2.30971 17.3844 2.11796 17.0081C2.06172 16.8977 1.98845 16.6917 1.94577 16.1694C1.90138 15.626 1.89998 14.9139 1.89998 13.8201V6.18009C1.89998 5.08629 1.90138 4.3742 1.94577 3.83084C1.98845 3.3085 2.06172 3.10251 2.11796 2.99212C2.30971 2.61579 2.61567 2.30983 2.99199 2.11808C3.10238 2.06184 3.30838 1.98857 3.83072 1.94589C4.37408 1.9015 5.08617 1.9001 6.17998 1.9001ZM0.0999756 6.18009C0.0999756 4.0519 0.0999756 2.9878 0.514151 2.17493C0.87847 1.45992 1.4598 0.878592 2.17481 0.514273C2.98768 0.100097 4.05178 0.100098 6.17998 0.100098H7.81997C9.94817 0.100098 11.0123 0.100097 11.8251 0.514273C12.5401 0.878592 13.1215 1.45992 13.4858 2.17493C13.9 2.9878 13.9 4.0519 13.9 6.1801V13.8201C13.9 15.9483 13.9 17.0124 13.4858 17.8253C13.1215 18.5403 12.5401 19.1216 11.8251 19.4859C11.0123 19.9001 9.94817 19.9001 7.81997 19.9001H6.17998C4.05178 19.9001 2.98768 19.9001 2.17481 19.4859C1.4598 19.1216 0.87847 18.5403 0.514151 17.8253C0.0999756 17.0124 0.0999756 15.9483 0.0999756 13.8201V6.18009ZM6.24997 14.2001C5.75291 14.2001 5.34997 14.603 5.34997 15.1001C5.34997 15.5972 5.75291 16.0001 6.24997 16.0001H7.74997C8.24703 16.0001 8.64997 15.5972 8.64997 15.1001C8.64997 14.603 8.24703 14.2001 7.74997 14.2001H6.24997Z" fill="#98A2B3"/>
    </symbol>

</svg>

